<?xml version="1.0" encoding="utf-8"?><svg viewBox="0 0 94 80" xmlns="http://www.w3.org/2000/svg" xmlns:xlink="http://www.w3.org/1999/xlink"><style>:root>svg{display:none}:root>svg:target{display:block}</style><svg viewBox="0 0 24 24" id="footer--fb" xmlns="http://www.w3.org/2000/svg"><path d="M15.402 21v-6.966h2.333l.349-2.708h-2.682V9.598c0-.784.218-1.319 1.342-1.319h1.434V5.857a19.188 19.188 0 00-2.09-.107c-2.067 0-3.482 1.262-3.482 3.58v1.996h-2.338v2.708h2.338V21H4a1 1 0 01-1-1V4a1 1 0 011-1h16a1 1 0 011 1v16a1 1 0 01-1 1h-4.598z"/></svg><svg viewBox="0 0 24 24" id="footer--isnt" xmlns="http://www.w3.org/2000/svg"><path d="M12 2c2.717 0 3.056.01 4.122.06 1.065.05 1.79.217 2.428.465.66.254 1.216.598 1.772 1.153.509.5.902 1.105 1.153 1.772.247.637.415 1.363.465 2.428.047 1.066.06 1.405.06 4.122 0 2.717-.01 3.056-.06 4.122-.05 1.065-.218 1.79-.465 2.428a4.883 4.883 0 01-1.153 1.772c-.5.508-1.105.902-1.772 1.153-.637.247-1.363.415-2.428.465-1.066.047-1.405.06-4.122.06-2.717 0-3.056-.01-4.122-.06-1.065-.05-1.79-.218-2.428-.465a4.89 4.89 0 01-1.772-1.153 4.904 4.904 0 01-1.153-1.772c-.248-.637-.415-1.363-.465-2.428C2.013 15.056 2 14.717 2 12c0-2.717.01-3.056.06-4.122.05-1.066.217-1.79.465-2.428a4.88 4.88 0 011.153-1.772A4.897 4.897 0 015.45 2.525c.638-.248 1.362-.415 2.428-.465C8.944 2.013 9.283 2 12 2zm0 5a5 5 0 100 10 5 5 0 000-10zm6.5-.25a1.25 1.25 0 10-2.5 0 1.25 1.25 0 002.5 0zM12 9a3 3 0 110 6 3 3 0 010-6z"/></svg><svg viewBox="0 0 24 24" id="footer--tw" xmlns="http://www.w3.org/2000/svg"><path d="M22.162 5.656a8.385 8.385 0 01-2.402.658A4.196 4.196 0 0021.6 4c-.82.488-1.719.83-2.656 1.015a4.182 4.182 0 00-7.126 3.814 11.874 11.874 0 01-8.62-4.37 4.168 4.168 0 00-.566 2.103c0 1.45.738 2.73 1.86 3.48a4.168 4.168 0 01-1.894-.522v.052a4.185 4.185 0 003.355 4.1 4.208 4.208 0 01-1.89.073A4.185 4.185 0 007.97 16.65a8.393 8.393 0 01-6.19 1.732 11.83 11.83 0 006.409 1.88c7.693 0 11.9-6.373 11.9-11.9 0-.18-.005-.362-.013-.54a8.497 8.497 0 002.087-2.165v-.001z"/></svg><svg viewBox="0 0 24 24" id="footer--yt" xmlns="http://www.w3.org/2000/svg"><path d="M21.543 6.498C22 8.28 22 12 22 12s0 3.72-.457 5.502c-.254.985-.997 1.76-1.938 2.022C17.896 20 12 20 12 20s-5.893 0-7.605-.476c-.945-.266-1.687-1.04-1.938-2.022C2 15.72 2 12 2 12s0-3.72.457-5.502c.254-.985.997-1.76 1.938-2.022C6.107 4 12 4 12 4s5.896 0 7.605.476c.945.266 1.687 1.04 1.938 2.022zM10 15.5l6-3.5-6-3.5v7z"/></svg><svg fill="none" viewBox="0 0 94 21" id="header--logo" xmlns="http://www.w3.org/2000/svg"><path fill-rule="evenodd" clip-rule="evenodd" d="M13.123 14.968c0 3.298-2.617 5.69-6.775 5.69A9.044 9.044 0 010 17.797l1.39-1.542c1.302 1.243 2.833 2.451 4.93 2.451 2.33 0 4.841-1.31 4.841-3.664 0-1.955-1.548-3.23-4.802-4.235C2.651 9.67.77 8.128.77 5.227.768 2.356 3.188 0 6.64 0c2.577 0 4.19 1.102 5.759 2.51l-1.367 1.523C9.656 2.81 8.345 1.981 6.736 1.981 4.74 1.98 2.77 3.272 2.77 5.13c0 1.684.964 2.757 4.37 3.803 3.12.964 5.983 2.458 5.983 6.033v.002zm16.825-13.07a1.63 1.63 0 003.23.32A1.641 1.641 0 0031.58.26c-.901 0-1.631.733-1.631 1.638h-.001zm20.38 17.778s1.21.987 5.244.987l-.002-.001c3.982 0 7.214-2.922 7.214-6.915 0-3.992-3.23-6.903-7.212-6.903a7.37 7.37 0 00-3.278.673V.599h-1.966v19.077zm14.759-5.909c0 3.994 3.226 7.233 7.207 7.233s7.209-3.238 7.21-7.232c0-3.994-3.228-7.232-7.209-7.232-3.98 0-7.208 3.237-7.208 7.231zm26.346 6.57H94l-5.676-6.784 5.293-6.362h-2.552l-4.02 4.832-4.041-4.832h-2.567l5.331 6.37-5.636 6.776h2.551l4.364-5.245 4.386 5.245zM72.313 8.49a5.249 5.249 0 00-4.85 3.25 5.28 5.28 0 001.137 5.74 5.236 5.236 0 008.077-.8 5.267 5.267 0 00.883-2.924c0-2.908-2.35-5.266-5.248-5.266h.001zm-16.73.333a5.83 5.83 0 00-3.279 1.065v8.145a6.61 6.61 0 003.278.658c2.896 0 5.245-2.03 5.245-4.934 0-2.904-2.351-4.935-5.247-4.935h.002l.001.001zM45.748.6h-1.967v19.734h1.967V.6zm-8.517 0h1.967v19.734h-1.967V.6zM18.209 13.44l-.006-.006.006-.006v.012zm0 6.894V13.44l6.873 6.897h2.781l-6.88-6.903 6.229-6.253H24.43l-6.222 6.247V.6h-1.967v19.734h1.968zm12.457.003h1.966V7.181h-1.966v13.156z" fill="#fff"/></svg><svg fill="none" viewBox="0 0 24 24" id="learn--clock" xmlns="http://www.w3.org/2000/svg"><path d="M11.99 2C6.47 2 2 6.48 2 12s4.47 10 9.99 10C17.52 22 22 17.52 22 12S17.52 2 11.99 2zM12 20c-4.42 0-8-3.58-8-8s3.58-8 8-8 8 3.58 8 8-3.58 8-8 8z" fill="#fff"/><path d="M12.5 7H11v6l5.25 3.15.75-1.23-4.5-2.67V7z" fill="#fff"/></svg><svg fill="none" viewBox="0 0 80 80" id="preference--eye" xmlns="http://www.w3.org/2000/svg"><path d="M40 0a40 40 0 100 80 40 40 0 000-80zm0 56c-10.52 0-20-6.28-24-16 5.52-13.24 20.76-19.52 34-14a26.083 26.083 0 0114 14c-4 9.72-13.48 16-24 16z" fill="#3F2AFF"/><path fill-rule="evenodd" clip-rule="evenodd" d="M40.357 30.313a10.045 10.045 0 100 20.089 10.045 10.045 0 000-20.09zm0 14.564a4.52 4.52 0 100-9.04 4.52 4.52 0 000 9.04z" fill="#212133"/></svg><svg fill="none" viewBox="0 0 80 80" id="preference--fingers" xmlns="http://www.w3.org/2000/svg"><g clip-path="url(#hclip0)" fill="#212133"><path d="M37.91 43.367c0 .31.25.562.56.562h.72a2.687 2.687 0 01-.13-1.123h-.59a.561.561 0 00-.56.561zM42.353 24.326a1.684 1.684 0 00-1.998 1.296l-1.617 10.304a.847.847 0 01-1.655.05l-1.981-9.113a1.684 1.684 0 10-3.312.6l1.88 10.293a6.12 6.12 0 01-.028 2.368 17.104 17.104 0 011.836-1.571 3.89 3.89 0 012.346-.797h3.749l2.076-11.427a1.684 1.684 0 00-1.296-2.003z"/><path d="M43.122 45.118a2.76 2.76 0 01-.976.45c.076.122.143.25.202.38a.561.561 0 01-.511.787.561.561 0 01-.51-.337 2.245 2.245 0 00-2.066-1.347h-.791a1.684 1.684 0 110-3.367h1.683a2.245 2.245 0 002.245-2.245v-.562h-4.574c-.607 0-1.198.197-1.683.562-2.2 1.639-4.406 4.08-4.406 6.864a5.983 5.983 0 001.122 3.496l2.807 3.872c.426.592.625 1.317.56 2.043h9.542c0-1.526-.152-1.122 2.318-5.326a10.164 10.164 0 001.049-4.215v-2.592l-1.308 2.082a2.582 2.582 0 01-4.703-.545z"/><path d="M40.18 42.806a1.414 1.414 0 001.684 1.684c.813-.18 1.122-.814 1.543-1.532 2.29-3.66 2.206-3.514 2.245-3.626a1.61 1.61 0 00-.376-2.245 1.56 1.56 0 00-2.133.617l-.151.242c.322.201.52.552.527.931v.562a3.367 3.367 0 01-3.339 3.367zM49.022 38.877a1.527 1.527 0 00-2.076.562c-.326.527.224-.404-2.576 4.12-.221.348-.294.77-.203 1.172a1.465 1.465 0 002.722.32l2.582-4.103a1.499 1.499 0 00-.449-2.07z"/></g><path fill-rule="evenodd" clip-rule="evenodd" d="M24.693 3.045a40 40 0 1130.614 73.91 40 40 0 01-30.614-73.91zm15.664 59.098c12.032 0 21.786-9.754 21.786-21.786 0-12.032-9.754-21.786-21.786-21.786-12.032 0-21.786 9.754-21.786 21.786 0 12.032 9.754 21.786 21.786 21.786z" fill="#3F2AFF"/><defs><clipPath id="hclip0"><path fill="#fff" transform="translate(25 24.286)" d="M0 0h31.429v31.429H0z"/></clipPath></defs></svg><svg fill="none" viewBox="0 0 78 80" id="preference--voice" xmlns="http://www.w3.org/2000/svg"><g clip-path="url(#iclip0)"><path fill-rule="evenodd" clip-rule="evenodd" d="M24.007 3.045A37.953 37.953 0 0138.889 0 37.953 37.953 0 0153.77 3.045a38.836 38.836 0 0112.617 8.67 40.095 40.095 0 018.43 12.978A40.993 40.993 0 0177.777 40c0 10.609-4.097 20.783-11.39 28.284C59.094 75.786 49.203 80 38.888 80a37.953 37.953 0 01-14.881-3.045 38.836 38.836 0 01-12.617-8.67C4.097 60.782 0 50.608 0 40c0-10.609 4.097-20.783 11.39-28.284a38.835 38.835 0 0112.617-8.671zm15.23 59.098c11.697 0 21.18-9.754 21.18-21.786 0-12.032-9.483-21.786-21.18-21.786-11.699 0-21.181 9.754-21.181 21.786 0 12.032 9.482 21.786 21.18 21.786z" fill="#3F2AFF"/><g clip-path="url(#iclip1)" fill="#212133"><path d="M38.888 43.112v-9.261c-.255.024-.508.065-.764.077h-7.352a.749.749 0 00-.737.76v.758H27.82a.749.749 0 00-.738.759v4.553c0 .419.33.759.738.759h2.213v.759c0 .419.331.759.738.759h.447l2.966 8.132a1.48 1.48 0 001.382.976c.394 0 .768-.161 1.037-.45l1.772-1.807c.453-.466.56-1.193.272-1.756l-2.476-5.095h1.96c.253.012.504.053.756.077zM50.573 28.224a.731.731 0 00-.356-.314c-.004-.001-.007-.007-.012-.009-.014-.004-.028.003-.042-.001-.067-.02-.133-.043-.207-.043-.05 0-.094.02-.143.03-.028.006-.055.008-.083.017a.73.73 0 00-.323.216c-.006.006-.015.007-.02.013a15.45 15.45 0 01-9.022 5.5v9.7a15.447 15.447 0 019.021 5.497c.006.007.017.01.024.02a.72.72 0 00.183.145c.022.014.04.033.062.044a.741.741 0 00.301.067.752.752 0 00.25-.044c.004-.002.007-.008.011-.01a.72.72 0 00.309-.242l.047-.072a.749.749 0 00.12-.391V28.616a.749.749 0 00-.12-.392z"/></g></g><defs><clipPath id="iclip0"><path fill="#fff" d="M0 0h77.778v80H0z"/></clipPath><clipPath id="iclip1"><path fill="#fff" transform="translate(27.083 27.857)" d="M0 0h23.611v24.286H0z"/></clipPath></defs></svg></svg>